<?xml version="1.0" standalone="no"?>
<!DOCTYPE svg PUBLIC "-//W3C//DTD SVG 20010904//EN"
 "http://www.w3.org/TR/2001/REC-SVG-20010904/DTD/svg10.dtd">
<svg version="1.0" xmlns="http://www.w3.org/2000/svg"
 width="460.000000pt" height="460.000000pt" viewBox="0 0 460.000000 460.000000"
 preserveAspectRatio="xMidYMid meet">
<metadata>
Created by potrace 1.15, written by Peter Selinger 2001-2017
</metadata>
<g transform="translate(0.000000,460.000000) scale(0.100000,-0.100000)"
fill="#000000" stroke="none">
<path d="M0 2300 l0 -2300 2300 0 2300 0 0 2300 0 2300 -2300 0 -2300 0 0
-2300z m3680 1610 l0 -230 115 0 115 0 0 -230 0 -230 -690 0 -690 0 0 -115 0
-115 -230 0 -230 0 0 115 0 115 -690 0 -690 0 0 230 0 230 115 0 115 0 0 230
0 230 1380 0 1380 0 0 -230z m-2300 -1150 l0 -230 230 0 230 0 0 -115 0 -115
-460 0 -460 0 0 345 0 345 230 0 230 0 0 -230z m1840 0 l0 -230 230 0 230 0 0
-115 0 -115 -460 0 -460 0 0 345 0 345 230 0 230 0 0 -230z m-2530 -230 l0
-230 -115 0 -115 0 0 230 0 230 115 0 115 0 0 -230z m1840 -115 l0 -345 345 0
345 0 0 -115 0 -115 115 0 115 0 0 115 0 115 233 0 232 0 -3 -230 -3 -230
-114 0 -115 0 0 -115 0 -115 -115 0 -115 0 0 -117 0 -118 -115 2 -115 2 0
-115 0 -114 -115 0 -115 0 0 -115 0 -115 -115 0 -115 0 0 -115 0 -115 -460 0
-460 0 0 115 0 115 -115 0 -115 0 0 333 c0 182 -4 337 -8 344 -5 9 -38 12
-107 10 -55 -1 -207 -1 -337 1 l-238 2 0 115 0 115 -115 0 -115 0 0 230 0 230
230 0 230 0 0 -115 0 -115 115 0 115 0 0 115 0 115 345 0 345 0 0 345 0 345
230 0 230 0 0 -345z m1610 115 l0 -230 -115 0 -115 0 0 230 0 230 115 0 115 0
0 -230z"/>
<path d="M1380 1725 l0 -115 920 0 920 0 0 115 0 115 -920 0 -920 0 0 -115z"/>
</g>
</svg>
